<?xml version="1.0" encoding="UTF-8"?>
<svg width="24px" height="24px" viewBox="0 0 24 24" version="1.1" xmlns="http://www.w3.org/2000/svg" xmlns:xlink="http://www.w3.org/1999/xlink">
    <title>Toque de Chef</title>
    <g stroke="none" stroke-width="1" fill="none" fill-rule="evenodd">
        <path d="M12,2 C8.5,2 6,4.5 6,8 C6,8.3 6.1,8.7 6.1,9 C4.8,9.5 4,10.6 4,12 C4,13.7 5.3,15 7,15 L7,16 C7,18.2 9.8,20 12,20 C14.2,20 17,18.2 17,16 L17,15 C18.7,15 20,13.7 20,12 C20,10.6 19.2,9.5 17.9,9 C17.9,8.7 18,8.3 18,8 C18,4.5 15.5,2 12,2 Z" fill="currentColor" fill-rule="nonzero"></path>
        <path d="M9,16 L15,16 L15,17 C15,17.6 14.6,18 14,18 L10,18 C9.4,18 9,17.6 9,17 L9,16 Z" fill="currentColor" fill-rule="nonzero"></path>
        <path d="M8,21 L16,21 C16.6,21 17,21.4 17,22 L7,22 C7,21.4 7.4,21 8,21 Z" fill="currentColor" fill-rule="nonzero"></path>
    </g>
</svg> 